<svg xmlns="http://www.w3.org/2000/svg" version="1.1" xmlns:xlink="http://www.w3.org/1999/xlink" xmlns:svgjs="http://svgjs.dev/svgjs" width="1440" height="560" preserveAspectRatio="none" viewBox="0 0 1440 560"><g mask="url(&quot;#SvgjsMask1028&quot;)" fill="none"><rect width="1440" height="560" x="0" y="0" fill="url(&quot;#SvgjsLinearGradient1029&quot;)"></rect><path d="M105 0C142.05 40.25 115.27 70.38 128.89 140C132.77 159.83 134.44 178.89 140 178.89C145.56 178.89 150.19 160.05 151.11 140C154.31 70.6 115.04 36.06 148.24 0C179.48 -33.94 214.12 0 280 0C350 0 350 0 420 0C490 0 490 0 560 0C630 0 630 0 700 0C742 0 743.65 -7.47 784 0C813.65 5.49 814.71 25.93 840 25.93C854.19 25.93 846.97 2.96 862.95 0C916.97 -10.01 921.47 0 980 0C1050 0 1050 0 1120 0C1137.5 0 1137.89 -3.21 1155 0C1207.89 9.92 1211.77 3.28 1260 26.25C1334.27 61.62 1342.79 123.94 1400 116.67C1446.13 110.81 1421.38 37.74 1466.67 0C1491.38 -20.6 1527.4 -24.06 1540 0C1564.06 45.94 1540 70 1540 140C1540 210 1540 210 1540 280C1540 309.48 1544.8 310.15 1540 338.95C1533.13 380.15 1516.67 380.96 1516.67 420C1516.67 441.23 1536.34 437.56 1540 459.49C1548.01 507.56 1569.25 539 1540 560C1499.25 589.25 1470 560 1400 560C1330 560 1330 560 1260 560C1190 560 1190 560 1120 560C1050 560 1050 560 980 560C919.49 560 913.26 571.43 858.98 560C843.26 556.69 850.17 544.8 840 530.53C800.29 474.8 798.32 476.16 759.23 420C728.32 375.6 727.71 329.41 700 329.41C673.65 329.41 658.78 371.26 651.11 420C640.63 486.55 689.92 519.72 663.7 560C644.36 589.72 611.85 560 560 560C490 560 490 560 420 560C350 560 350 560 280 560C210 560 210 560 140 560C114 560 88 569.96 88 560C88 546.62 109.15 528.33 140 513.33C205.15 481.66 211.13 492.91 280 466.67C333.63 446.24 385 455.57 385 420C385 369.23 345.28 318.87 280 294C222.78 272.2 209.5 308.43 140 326.67C69.5 345.18 43.75 382.08 0 367.5C-26.25 358.75 0 323.75 0 280C0 210 0 210 0 140C0 70 -30 40 0 0C22.5 -30 77.61 -29.75 105 0" stroke="rgba(255, 255, 235, 1)" stroke-width="2"></path><path d="M420 131.76C416.02 131.76 413.11 136.23 413.11 140C413.11 143.08 416.24 145.45 420 145.45C425.52 145.45 431.67 143.25 431.67 140C431.67 136.4 425.3 131.76 420 131.76" stroke="rgba(255, 255, 235, 1)" stroke-width="2"></path><path d="M1120 24.35C1103.4 24.35 1090.44 84.87 1090.44 140C1090.44 163.8 1104.01 182.22 1120 182.22C1137.52 182.22 1157.46 165.03 1157.46 140C1157.46 86.09 1136.91 24.35 1120 24.35" stroke="rgba(255, 255, 235, 1)" stroke-width="2"></path><path d="M560 227.17C538.16 227.17 530.21 254.05 530.21 280C530.21 303.41 539.1 325.9 560 325.9C597.74 325.9 647.5 304.26 647.5 280C647.5 254.9 596.81 227.17 560 227.17" stroke="rgba(255, 255, 235, 1)" stroke-width="2"></path><path d="M1260 389.87C1243.47 389.87 1226.94 400.06 1226.94 420C1226.94 477.75 1243.47 545.26 1260 545.26C1276.53 545.26 1293.06 477.75 1293.06 420C1293.06 400.06 1276.53 389.87 1260 389.87" stroke="rgba(255, 255, 235, 1)" stroke-width="2"></path><path d="M0 45.71C20.49 45.71 73.33 89.57 73.33 140C73.33 206.72 19.44 280 0 280C-17.22 280 0 210 0 140C0 92.86 -16.17 45.71 0 45.71" stroke="rgba(255, 255, 235, 1)" stroke-width="2"></path><path d="M206.67 140C188.92 77.86 191.57 48.28 216.86 0C228.24 -21.72 248.43 0 280 0C350 0 350 0 420 0C490 0 490 0 560 0C593.16 0 620.41 -22.18 626.32 0C639.07 47.82 622.84 78.03 597.33 140C589.68 158.59 578.23 161.13 560 161.13C544.01 161.13 544.29 150.78 528.89 140C474.29 101.79 469.42 63.14 420 63.14C382.85 63.14 355.74 104.87 355.74 140C355.74 168.75 391.46 161.8 420 190.91C460.08 231.8 492.98 234.74 492.98 280C492.98 327.59 459.5 376.62 420 376.62C376.03 376.62 371.05 330.03 326.03 280C301.05 252.24 304.25 249.49 280 221.05C244.57 179.49 220.49 188.39 206.67 140" stroke="rgba(255, 255, 235, 1)" stroke-width="2"></path><path d="M775.12 140C775.12 108.93 810.81 118.88 840 90.74C883.42 48.88 873.42 30.4 920.33 0C943.42 -14.97 950.16 0 980 0C1018.72 0 1044.71 -24.92 1057.45 0C1080.49 45.08 1034.67 75.8 1051.56 140C1065.95 194.69 1082.96 237.78 1120 237.78C1160.56 237.78 1163.24 188.76 1206.76 140C1233.24 110.34 1230.8 80.94 1260 80.94C1295.22 80.94 1308.74 101.81 1335.6 140C1378.74 201.34 1367.8 210 1400 280C1400 280 1400 280 1400 280C1431.82 350 1428.22 351.88 1463.64 420C1498.22 486.49 1504.38 483.92 1540 549.23C1542.56 553.92 1545 559.62 1540 560C1475 565 1470 560 1400 560C1371.28 560 1351.04 580.36 1342.56 560C1321.88 510.36 1364.74 479.92 1341.67 420C1323.46 372.71 1300.84 345.57 1260 345.57C1219.16 345.57 1204.98 373.85 1178.33 420C1143.06 481.07 1162.41 496.96 1136.15 560C1133.25 566.96 1128.07 560 1120 560C1050 560 1050 560 980 560C949.15 560 939.24 578.18 918.31 560C869.24 517.39 879.63 498.88 840 438.42C833.75 428.88 826.54 430.72 826.54 420C826.54 386.51 829.4 383.8 840 350C851.35 313.8 870.43 311.94 870.43 280C870.43 262.36 851.78 268.13 840 250.83C804.12 198.13 775.12 188.98 775.12 140" stroke="rgba(255, 255, 235, 1)" stroke-width="2"></path><path d="M1445.35 140C1445.35 86.36 1513.01 31.61 1540 31.61C1560.33 31.61 1540 85.81 1540 140C1540 191.69 1560.09 243.38 1540 243.38C1512.76 243.38 1445.35 192.25 1445.35 140" stroke="rgba(255, 255, 235, 1)" stroke-width="2"></path><path d="M501.05 420C501.05 393.97 532.78 383.28 560 383.28C580.03 383.28 595.56 397.59 595.56 420C595.56 469.29 582.68 526.67 560 526.67C535.42 526.67 501.05 465.67 501.05 420" stroke="rgba(255, 255, 235, 1)" stroke-width="2"></path><path d="M0 117.14C4.97 117.14 17.78 127.77 17.78 140C17.78 156.17 4.71 173.94 0 173.94C-4.18 173.94 0 156.97 0 140C0 128.57 -3.92 117.14 0 117.14" stroke="rgba(255, 255, 235, 1)" stroke-width="2"></path><path d="M262.22 140C262.22 86.64 270.97 28 280 28C289.04 28 298.36 86.78 298.36 140C298.36 152.61 289.1 159.65 280 159.65C271.03 159.65 262.22 152.47 262.22 140" stroke="rgba(255, 255, 235, 1)" stroke-width="2"></path><path d="M871.11 140C870.49 74.13 923.96 69.1 977.7 0C978.4 -0.9 978.85 0 980 0C981.49 0 982.65 -1.43 982.98 0C998.98 68.57 1013.51 70.73 1012.67 140C1012.02 193.23 1009.79 245 980 245C939.01 245 871.64 196.63 871.11 140" stroke="rgba(255, 255, 235, 1)" stroke-width="2"></path><path d="M1256.06 140C1257.66 137.53 1257.84 135.63 1260 135.63C1262.61 135.63 1264.54 136.64 1265.6 140C1287.25 208.83 1307.49 220.03 1305.41 280C1304.69 300.66 1283.85 301.27 1260 301.27C1214.48 301.27 1167.39 309.48 1166.67 280C1165.42 228.84 1210.99 209.72 1256.06 140" stroke="rgba(255, 255, 235, 1)" stroke-width="2"></path><path d="M1494.65 140C1494.65 114.3 1527.07 88.06 1540 88.06C1549.74 88.06 1540 114.03 1540 140C1540 164.77 1549.63 189.54 1540 189.54C1526.95 189.54 1494.65 165.04 1494.65 140" stroke="rgba(255, 255, 235, 1)" stroke-width="2"></path><path d="M373.97 280C373.97 257.71 398.36 236.36 420 236.36C439.24 236.36 455.74 257.83 455.74 280C455.74 303.31 439.35 327.32 420 327.32C398.46 327.32 373.97 303.19 373.97 280" stroke="rgba(255, 255, 235, 1)" stroke-width="2"></path><path d="M961.74 420C962.03 397.68 960.67 385.77 980 378C1039.8 353.95 1068.53 341.92 1120 356.36C1143.39 362.92 1129.72 388.69 1129.72 420C1129.72 433.47 1129.77 436.41 1120 445.93C1057.95 506.41 1053.75 504.87 986.09 560C983.75 561.91 983.05 560 980 560C978.82 560 977.78 561.16 977.63 560C968.65 491.16 960.85 488.68 961.74 420" stroke="rgba(255, 255, 235, 1)" stroke-width="2"></path><path d="M1390.28 420C1390.28 407.84 1394.95 396.67 1400 396.67C1405.12 396.67 1410.61 407.76 1410.61 420C1410.61 444.42 1405.09 470 1400 470C1394.93 470 1390.28 444.51 1390.28 420" stroke="rgba(255, 255, 235, 1)" stroke-width="2"></path></g><defs><mask id="SvgjsMask1028"><rect width="1440" height="560" fill="#ffffff"></rect></mask><linearGradient x1="50%" y1="100%" x2="50%" y2="0%" gradientUnits="userSpaceOnUse" id="SvgjsLinearGradient1029"><stop stop-color="rgba(216, 221, 223, 1)" offset="1"></stop><stop stop-color="rgba(206, 211, 219, 1)" offset="1"></stop></linearGradient></defs></svg>