<svg xmlns="http://www.w3.org/2000/svg" version="1.1" xmlns:xlink="http://www.w3.org/1999/xlink" xmlns:svgjs="http://svgjs.dev/svgjs" width="1440" height="560" preserveAspectRatio="none" viewBox="0 0 1440 560"><g mask="url(&quot;#SvgjsMask1405&quot;)" fill="none"><rect width="1440" height="560" x="0" y="0" fill="url(&quot;#SvgjsLinearGradient1406&quot;)"></rect><path d="M140 121.33C134.13 121.33 131.76 131.76 131.76 140C131.76 144.14 135.39 146.09 140 146.09C148.84 146.09 158.67 145.28 158.67 140C158.67 132.9 147.59 121.33 140 121.33" stroke="rgba(255, 255, 255, 1)" stroke-width="2"></path><path d="M215.83 0C253.96 17.48 255.69 64.17 280 64.17C298.04 64.17 275.29 11.57 300.53 0C345.29 -20.52 360.26 0 420 0C472.1 0 476.51 -11.28 524.19 0C546.51 5.28 539.92 33.12 560 33.12C589.25 33.12 589.3 7.94 622.86 0C659.3 -8.62 661.43 0 700 0C770 0 770 0 840 0C910 0 910 0 980 0C1050 0 1050 0 1120 0C1165.82 0 1168.44 -9.22 1211.64 0C1238.44 5.72 1237.52 29.89 1260 29.89C1276.81 29.89 1270.69 4.17 1290.23 0C1340.69 -10.77 1345.11 0 1400 0C1470 0 1505 -35 1540 0C1575 35 1540 70 1540 140C1540 182.61 1546.12 183.73 1540 225.22C1535.79 253.73 1519.34 254.65 1519.34 280C1519.34 293.1 1537.89 287.81 1540 302.11C1548.22 357.81 1540 361.06 1540 420C1540 490 1575 525 1540 560C1505 595 1470 560 1400 560C1330 560 1330 560 1260 560C1233.07 560 1228.61 571.98 1206.15 560C1158.61 534.64 1168.55 488.91 1120 485.33C1055.47 480.57 1046.58 510.29 980 543.33C971.36 547.62 978.78 558.9 969.55 560C908.78 567.24 904.78 560 840 560C770 560 770 560 700 560C630 560 630 560 560 560C490 560 490 560 420 560C350 560 350 560 280 560C210 560 210 560 140 560C70 560 35 595 0 560C-35 525 0 490 0 420C0 350 0 350 0 280C0 210 0 210 0 140C0 70 -35 35 0 0C35 -35 70 0 140 0C177.92 0 183.96 -14.61 215.83 0" stroke="rgba(255, 255, 255, 1)" stroke-width="2"></path><path d="M1120 126C1103.96 126 1082.67 128.96 1082.67 140C1082.67 154.62 1106.96 177.33 1120 177.33C1129.41 177.33 1127.57 158.1 1127.57 140C1127.57 132.44 1126.41 126 1120 126" stroke="rgba(255, 255, 255, 1)" stroke-width="2"></path><path d="M1260 245.38C1215.51 245.38 1165.29 253.27 1165.29 280C1165.29 314.1 1220.77 367.03 1260 367.03C1289.59 367.03 1302.93 318.78 1302.93 280C1302.93 257.96 1284.33 245.38 1260 245.38" stroke="rgba(255, 255, 255, 1)" stroke-width="2"></path><path d="M140 368C84.85 368 26.25 397.13 26.25 420C26.25 441.9 84.13 457.53 140 457.53C182.37 457.53 222.73 441.57 222.73 420C222.73 396.8 183.09 368 140 368" stroke="rgba(255, 255, 255, 1)" stroke-width="2"></path><path d="M1400 374.55C1358.45 374.55 1310.26 399.05 1310.26 420C1310.26 440.2 1357.59 456.84 1400 456.84C1426.44 456.84 1447.95 439.66 1447.95 420C1447.95 398.52 1427.29 374.55 1400 374.55" stroke="rgba(255, 255, 255, 1)" stroke-width="2"></path><path d="M0 95.45C7.83 95.45 9.41 122.43 28.82 140C79.41 185.79 78.36 209.68 140 222.17C203.95 235.13 220.01 220.08 280 190.91C304.5 179 299.31 167.45 308.97 140C332.91 71.99 310.23 46.62 347.2 0C365.75 -23.38 383.6 0 420 0C451.75 0 456.99 -13.39 483.49 0C526.99 21.98 517.09 70.75 560 70.75C622.49 70.75 626.83 34.09 694.29 0C696.83 -1.28 697.14 0 700 0C707.37 0 707.72 -2.13 714.74 0C777.72 19.12 777.37 42.5 840 42.5C902.63 42.5 902.28 19.12 965.26 0C972.28 -2.13 972.63 0 980 0C1050 0 1050 0 1120 0C1134 0 1148 -7.13 1148 0C1148 12.12 1141.14 36.3 1120 38.5C1057.14 45.05 1026.48 -9.16 980 17.5C937.99 41.59 943.02 83.11 943.02 140C943.02 163.96 961.1 160 980 179.2C1029.99 230 1062.55 219.84 1080.8 280C1099.07 340.24 1084.87 363.16 1053.04 420C1034.47 453.16 1008.07 431.04 980 460C940.21 501.04 959.61 529.79 917.31 560C889.61 579.79 878.65 560 840 560C770 560 770 560 700 560C630 560 630 560 560 560C490 560 490 560 420 560C350 560 350 560 280 560C210 560 210 560 140 560C70 560 55.15 574.85 0 560C-14.85 556 -14.61 529.24 0 522.31C55.39 496.04 71.86 514.17 140 493.61C211.86 471.93 210.68 467.18 280 437.82C297.57 430.38 313.79 431.62 313.79 420C313.79 405.21 300.74 397.17 280 385C213.84 346.17 213.51 332.89 140 318C73.51 304.53 52.09 342.42 0 328.28C-17.91 323.42 0 304.14 0 280C0 210 0 210 0 140C0 117.73 -6.58 95.45 0 95.45" stroke="rgba(255, 255, 255, 1)" stroke-width="2"></path><path d="M1174.86 140C1174.86 105.06 1218.94 106.27 1260 69.21C1296.51 36.27 1289.09 20.22 1330 0C1359.09 -14.38 1365 0 1400 0C1462.86 0 1499.04 -33.05 1525.71 0C1555.53 36.95 1528.45 72.04 1512.98 140C1496.58 212.04 1498.88 218.23 1461.97 280C1442.39 312.77 1429.73 329.09 1400 329.09C1373.54 329.09 1376.15 303.02 1349.6 280C1306.15 242.34 1304.92 243.73 1260 207.74C1217.55 173.73 1174.86 174.33 1174.86 140" stroke="rgba(255, 255, 255, 1)" stroke-width="2"></path><path d="M560 255C538.63 255 513.33 266.61 513.33 280C513.33 294 539.08 309.79 560 309.79C574.49 309.79 584.14 294.37 584.14 280C584.14 266.98 574.03 255 560 255" stroke="rgba(255, 255, 255, 1)" stroke-width="2"></path><path d="M1495.89 420C1521.94 395.78 1527.67 363.51 1540 363.51C1549.72 363.51 1540 391.75 1540 420C1540 461.28 1550.06 464.22 1540 502.56C1531.7 534.22 1531.11 548.58 1503.28 560C1461.11 577.3 1451.64 560 1400 560C1347.5 560 1295 575.19 1295 560C1295 542.03 1349.11 529.15 1400 493.68C1449.55 459.15 1451.94 460.87 1495.89 420" stroke="rgba(255, 255, 255, 1)" stroke-width="2"></path><path d="M369.31 140C362.33 72.4 372.46 59.13 393.87 0C397.81 -10.87 406.93 0 420 0C431.39 0 434.05 -6.77 442.79 0C504.05 47.42 491.58 82.43 560 108.39C620.18 131.22 629.95 98.43 700 97.58C769.95 96.73 775.09 89.44 840 105C863.58 110.65 859.25 121.74 876.98 140C929.25 193.84 928.14 194.94 980 249.2C995.05 264.94 1010.8 261.97 1010.8 280C1010.8 309.46 1000.57 315.6 980 344.17C950.17 385.6 933.7 375.49 910 420C876.23 483.41 894.97 500.2 865.07 560C859.97 570.2 852.54 560 840 560C815.3 560 799.33 578.15 790.59 560C765.62 508.15 800.27 478.95 772.59 420C754.97 382.47 729.81 399.61 700 367.03C665.75 329.61 676.62 320.06 644.48 280C606.62 232.8 609.79 198.47 560 192.5C497.55 185.01 472.61 267.56 420 253.08C377.26 241.31 375.4 198.94 369.31 140" stroke="rgba(255, 255, 255, 1)" stroke-width="2"></path><path d="M1222.16 140C1222.16 124.47 1242.16 125.46 1260 108.54C1315.96 55.46 1311.23 45.38 1369.77 0C1381.23 -8.89 1384.89 0 1400 0C1427.14 0 1447.08 -19.56 1454.29 0C1472.87 50.44 1463.67 71.86 1451.58 140C1438.82 211.86 1429.4 210.92 1404.59 280C1403.61 282.74 1402.2 283.64 1400 283.64C1398.04 283.64 1398.29 281.64 1396.27 280C1328.29 224.88 1328.21 224.96 1260 170.11C1241.16 154.96 1222.16 155.26 1222.16 140" stroke="rgba(255, 255, 255, 1)" stroke-width="2"></path><path d="M448 420C479.61 380.32 505.76 384.26 560 384.26C594.07 384.26 623.62 391.24 624.62 420C626.67 479.11 597.15 492.7 566.09 560C564.84 562.7 563.05 560 560 560C490 560 447.73 594.66 420 560C391.73 524.66 409.61 468.19 448 420" stroke="rgba(255, 255, 255, 1)" stroke-width="2"></path><path d="M64.62 560C64.62 552.14 100.95 540.31 140 529.69C208.64 511.03 212.12 494.1 280 501.45C352.12 509.26 420 544.77 420 560C420 574.05 350 560 280 560C210 560 210 560 140 560C102.31 560 64.62 567.29 64.62 560" stroke="rgba(255, 255, 255, 1)" stroke-width="2"></path><path d="M1353.33 560C1353.33 552.02 1376.72 530.53 1400 530.53C1423.01 530.53 1445.9 552 1445.9 560C1445.9 566.73 1422.95 560 1400 560C1376.66 560 1353.33 566.75 1353.33 560" stroke="rgba(255, 255, 255, 1)" stroke-width="2"></path></g><defs><mask id="SvgjsMask1405"><rect width="1440" height="560" fill="#ffffff"></rect></mask><linearGradient x1="50%" y1="100%" x2="50%" y2="0%" gradientUnits="userSpaceOnUse" id="SvgjsLinearGradient1406"><stop stop-color="rgba(216, 221, 223, 1)" offset="1"></stop><stop stop-color="rgba(118, 121, 134, 1)" offset="1"></stop></linearGradient></defs></svg>